<mxfile host="65bd71144e">
    <diagram id="7-_2owUbie5BwCN5gWsv" name="Page-1">
        <mxGraphModel dx="831" dy="339" grid="1" gridSize="10" guides="1" tooltips="1" connect="1" arrows="1" fold="1" page="0" pageScale="1" pageWidth="850" pageHeight="1100" math="0" shadow="0">
            <root>
                <mxCell id="0"/>
                <mxCell id="1" parent="0"/>
                <mxCell id="2" value="HomePage" style="rounded=0;whiteSpace=wrap;html=1;" vertex="1" parent="1">
                    <mxGeometry x="410" y="150" width="120" height="30" as="geometry"/>
                </mxCell>
                <mxCell id="5" value="pages" style="rounded=0;whiteSpace=wrap;html=1;fillColor=none;dashed=1;verticalAlign=top;" vertex="1" parent="1">
                    <mxGeometry x="400" y="120" width="140" height="110" as="geometry"/>
                </mxCell>
                <mxCell id="4" value="DealsPage" style="rounded=0;whiteSpace=wrap;html=1;" vertex="1" parent="1">
                    <mxGeometry x="410" y="190" width="120" height="30" as="geometry"/>
                </mxCell>
                <mxCell id="6" value="service" style="rounded=0;whiteSpace=wrap;html=1;fillColor=none;dashed=1;verticalAlign=top;" vertex="1" parent="1">
                    <mxGeometry x="580" y="120" width="140" height="150" as="geometry"/>
                </mxCell>
                <mxCell id="7" value="data" style="rounded=0;whiteSpace=wrap;html=1;" vertex="1" parent="1">
                    <mxGeometry x="590" y="150" width="120" height="20" as="geometry"/>
                </mxCell>
                <mxCell id="14" value="categorise, deals, recomenations, reiews&amp;nbsp;" style="rounded=0;whiteSpace=wrap;html=1;align=center;" vertex="1" parent="1">
                    <mxGeometry x="590" y="170" width="120" height="50" as="geometry"/>
                </mxCell>
                <mxCell id="15" value="dataManeger" style="rounded=0;whiteSpace=wrap;html=1;" vertex="1" parent="1">
                    <mxGeometry x="590" y="230" width="120" height="30" as="geometry"/>
                </mxCell>
                <mxCell id="16" value="components" style="rounded=0;whiteSpace=wrap;html=1;fillColor=none;dashed=1;verticalAlign=top;" vertex="1" parent="1">
                    <mxGeometry x="220" y="120" width="140" height="270" as="geometry"/>
                </mxCell>
                <mxCell id="17" value="topBar" style="rounded=0;whiteSpace=wrap;html=1;" vertex="1" parent="1">
                    <mxGeometry x="230" y="150" width="120" height="20" as="geometry"/>
                </mxCell>
                <mxCell id="18" value="footer" style="rounded=0;whiteSpace=wrap;html=1;" vertex="1" parent="1">
                    <mxGeometry x="230" y="210" width="120" height="20" as="geometry"/>
                </mxCell>
                <mxCell id="19" value="aboutItem" style="rounded=0;whiteSpace=wrap;html=1;" vertex="1" parent="1">
                    <mxGeometry x="230" y="240" width="120" height="20" as="geometry"/>
                </mxCell>
                <mxCell id="20" value="mealItem" style="rounded=0;whiteSpace=wrap;html=1;" vertex="1" parent="1">
                    <mxGeometry x="230" y="270" width="120" height="20" as="geometry"/>
                </mxCell>
                <mxCell id="21" value="list" style="rounded=0;whiteSpace=wrap;html=1;" vertex="1" parent="1">
                    <mxGeometry x="230" y="300" width="120" height="20" as="geometry"/>
                </mxCell>
                <mxCell id="22" value="reviewItem" style="rounded=0;whiteSpace=wrap;html=1;" vertex="1" parent="1">
                    <mxGeometry x="230" y="330" width="120" height="20" as="geometry"/>
                </mxCell>
                <mxCell id="23" value="searchField" style="rounded=0;whiteSpace=wrap;html=1;" vertex="1" parent="1">
                    <mxGeometry x="230" y="360" width="120" height="20" as="geometry"/>
                </mxCell>
                <mxCell id="25" value="menu" style="rounded=0;whiteSpace=wrap;html=1;" vertex="1" parent="1">
                    <mxGeometry x="230" y="180" width="120" height="20" as="geometry"/>
                </mxCell>
                <mxCell id="26" value="App" style="rounded=0;whiteSpace=wrap;html=1;" vertex="1" parent="1">
                    <mxGeometry x="340" y="50" width="120" height="30" as="geometry"/>
                </mxCell>
                <mxCell id="27" value="Router" style="rounded=0;whiteSpace=wrap;html=1;" vertex="1" parent="1">
                    <mxGeometry x="480" y="50" width="120" height="30" as="geometry"/>
                </mxCell>
            </root>
        </mxGraphModel>
    </diagram>
</mxfile>